<?xml version="1.0" encoding="utf-8"?>
<svg width="64" height="64" viewBox="0 0 64 64" xmlns="http://www.w3.org/2000/svg">
  <defs>
    <linearGradient id="telescope-body" x1="0" y1="0" x2="1" y2="1">
      <stop offset="0" stop-color="#666"/>
      <stop offset="1" stop-color="#444"/>
    </linearGradient>
  </defs>
  <g style="" transform="matrix(1.628118, 0, 0, 1.55949, -19.969225, -20.581156)">
    <g transform="matrix(0.939693, -0.34202, 0.34202, 0.939693, -8.313239, 8.080422)">
      <rect x="20" y="26" width="28" height="10" rx="2" fill="url(#telescope-body)" stroke="#222" stroke-width="2"/>
      <rect x="20" y="26" width="28" height="3" rx="1.5" fill="#aaa" opacity="0.3"/>
      <rect x="14" y="27" width="6" height="8" rx="1" fill="#999" stroke="#333" stroke-width="1.5"/>
    </g>
    <g stroke="#444" stroke-width="3" transform="matrix(1, 0, 0, 1, 0.70157, -4.794059)">
      <line x1="32" y1="37" x2="22" y2="56"/>
      <line x1="32" y1="37" x2="42" y2="56"/>
      <line x1="32" y1="37" x2="32" y2="56"/>
    </g>
    <g stroke="#000" stroke-opacity="0.2" stroke-width="4" transform="matrix(1, 0, 0, 1, 0.70157, -4.794059)">
      <line x1="32" y1="37" x2="22" y2="56"/>
      <line x1="32" y1="37" x2="42" y2="56"/>
    </g>
  </g>
</svg>